<svg width="7" height="7" viewBox="0 0 7 7" fill="none" xmlns="http://www.w3.org/2000/svg">
<path d="M5.44451 3.22686L2.32942 0.111828C2.25737 0.0397233 2.16119 0 2.05864 0C1.95609 0 1.85991 0.0397233 1.78786 0.111828L1.55846 0.341176C1.40918 0.490622 1.40918 0.733514 1.55846 0.882733L4.17427 3.49855L1.55555 6.11727C1.48351 6.18937 1.44373 6.28549 1.44373 6.38799C1.44373 6.4906 1.48351 6.58672 1.55555 6.65888L1.78496 6.88817C1.85706 6.96028 1.95318 7 2.05574 7C2.15829 7 2.25447 6.96028 2.32652 6.88817L5.44451 3.77029C5.51673 3.69796 5.55639 3.60139 5.55616 3.49872C5.55639 3.39566 5.51673 3.29914 5.44451 3.22686Z" fill="#4C858B"/>
</svg>
