<svg width="766" height="574" viewBox="0 0 766 574" fill="none" xmlns="http://www.w3.org/2000/svg">
<path fill-rule="evenodd" clip-rule="evenodd" d="M0.490264 244.36C3.63834 188.427 44.8501 91.1938 249.922 81.9868C497.195 70.8857 524.919 -82.4557 618.696 60.8104C712.469 204.076 846.916 354.886 702.654 471.25C568.781 579.238 393.706 551.665 168.78 457.884C4.6932 389.46 -2.65949 300.29 0.488309 244.36L0.490264 244.36Z" fill="#4C858B"/>
<path d="M34.5916 157.572L17.9999 148V167.202L34.5916 157.572Z" fill="#4C858B"/>
<path d="M65.0484 157.572L48.4567 148V167.202L65.0484 157.572Z" fill="#EA6628"/>
<path d="M95.5051 157.572L78.9135 148V167.202L95.5051 157.572Z" fill="#4C858B"/>
<path d="M702.592 64.5721L686 55V74.2022L702.592 64.5721Z" fill="#4C858B"/>
<path d="M733.048 64.5721L716.457 55V74.2022L733.048 64.5721Z" fill="#EA6628"/>
<path d="M763.505 64.5721L746.913 55V74.2022L763.505 64.5721Z" fill="#4C858B"/>
<path d="M147.507 99.2047C148.862 99.2047 149.96 98.1067 149.96 96.7522C149.96 95.3977 148.862 94.2997 147.507 94.2997C146.153 94.2997 145.055 95.3977 145.055 96.7522C145.055 98.1067 146.153 99.2047 147.507 99.2047Z" fill="black"/>
<path d="M163.071 99.2047C164.426 99.2047 165.524 98.1067 165.524 96.7522C165.524 95.3977 164.426 94.2997 163.071 94.2997C161.717 94.2997 160.619 95.3977 160.619 96.7522C160.619 98.1067 161.717 99.2047 163.071 99.2047Z" fill="black"/>
<path d="M178.635 99.2047C179.989 99.2047 181.087 98.1067 181.087 96.7522C181.087 95.3977 179.989 94.2997 178.635 94.2997C177.28 94.2997 176.182 95.3977 176.182 96.7522C176.182 98.1067 177.28 99.2047 178.635 99.2047Z" fill="black"/>
<path d="M147.507 80.8581C148.862 80.8581 149.96 79.7601 149.96 78.4056C149.96 77.0511 148.862 75.9531 147.507 75.9531C146.153 75.9531 145.055 77.0511 145.055 78.4056C145.055 79.7601 146.153 80.8581 147.507 80.8581Z" fill="black"/>
<path d="M163.071 80.8581C164.426 80.8581 165.524 79.7601 165.524 78.4056C165.524 77.0511 164.426 75.9531 163.071 75.9531C161.717 75.9531 160.619 77.0511 160.619 78.4056C160.619 79.7601 161.717 80.8581 163.071 80.8581Z" fill="black"/>
<path d="M178.635 80.8581C179.989 80.8581 181.087 79.7601 181.087 78.4056C181.087 77.0511 179.989 75.9531 178.635 75.9531C177.28 75.9531 176.182 77.0511 176.182 78.4056C176.182 79.7601 177.28 80.8581 178.635 80.8581Z" fill="black"/>
<path d="M147.507 64.8225C148.862 64.8225 149.96 63.7245 149.96 62.37C149.96 61.0155 148.862 59.9175 147.507 59.9175C146.153 59.9175 145.055 61.0155 145.055 62.37C145.055 63.7245 146.153 64.8225 147.507 64.8225Z" fill="black"/>
<path d="M163.071 64.8225C164.426 64.8225 165.524 63.7245 165.524 62.37C165.524 61.0155 164.426 59.9175 163.071 59.9175C161.717 59.9175 160.619 61.0155 160.619 62.37C160.619 63.7245 161.717 64.8225 163.071 64.8225Z" fill="black"/>
<path d="M178.635 64.8225C179.989 64.8225 181.087 63.7245 181.087 62.37C181.087 61.0155 179.989 59.9175 178.635 59.9175C177.28 59.9175 176.182 61.0155 176.182 62.37C176.182 63.7245 177.28 64.8225 178.635 64.8225Z" fill="black"/>
<path d="M147.507 152.417C148.862 152.417 149.96 151.319 149.96 149.965C149.96 148.61 148.862 147.512 147.507 147.512C146.153 147.512 145.055 148.61 145.055 149.965C145.055 151.319 146.153 152.417 147.507 152.417Z" fill="black"/>
<path d="M163.071 152.417C164.426 152.417 165.524 151.319 165.524 149.965C165.524 148.61 164.426 147.512 163.071 147.512C161.717 147.512 160.619 148.61 160.619 149.965C160.619 151.319 161.717 152.417 163.071 152.417Z" fill="black"/>
<path d="M178.635 152.417C179.989 152.417 181.087 151.319 181.087 149.965C181.087 148.61 179.989 147.512 178.635 147.512C177.28 147.512 176.182 148.61 176.182 149.965C176.182 151.319 177.28 152.417 178.635 152.417Z" fill="black"/>
<path d="M147.507 134.071C148.862 134.071 149.96 132.972 149.96 131.618C149.96 130.264 148.862 129.166 147.507 129.166C146.153 129.166 145.055 130.264 145.055 131.618C145.055 132.972 146.153 134.071 147.507 134.071Z" fill="black"/>
<path d="M163.071 134.071C164.426 134.071 165.524 132.972 165.524 131.618C165.524 130.264 164.426 129.166 163.071 129.166C161.717 129.166 160.619 130.264 160.619 131.618C160.619 132.972 161.717 134.071 163.071 134.071Z" fill="black"/>
<path d="M178.635 134.071C179.989 134.071 181.087 132.972 181.087 131.618C181.087 130.264 179.989 129.166 178.635 129.166C177.28 129.166 176.182 130.264 176.182 131.618C176.182 132.972 177.28 134.071 178.635 134.071Z" fill="black"/>
<path d="M147.507 118.035C148.862 118.035 149.96 116.937 149.96 115.582C149.96 114.228 148.862 113.13 147.507 113.13C146.153 113.13 145.055 114.228 145.055 115.582C145.055 116.937 146.153 118.035 147.507 118.035Z" fill="black"/>
<path d="M163.071 118.035C164.426 118.035 165.524 116.937 165.524 115.582C165.524 114.228 164.426 113.13 163.071 113.13C161.717 113.13 160.619 114.228 160.619 115.582C160.619 116.937 161.717 118.035 163.071 118.035Z" fill="black"/>
<path d="M178.635 118.035C179.989 118.035 181.087 116.937 181.087 115.582C181.087 114.228 179.989 113.13 178.635 113.13C177.28 113.13 176.182 114.228 176.182 115.582C176.182 116.937 177.28 118.035 178.635 118.035Z" fill="black"/>
<path d="M147.507 46.476C148.862 46.476 149.96 45.378 149.96 44.0235C149.96 42.6691 148.862 41.571 147.507 41.571C146.153 41.571 145.055 42.6691 145.055 44.0235C145.055 45.378 146.153 46.476 147.507 46.476Z" fill="black"/>
<path d="M163.071 46.476C164.426 46.476 165.524 45.378 165.524 44.0235C165.524 42.6691 164.426 41.571 163.071 41.571C161.717 41.571 160.619 42.6691 160.619 44.0235C160.619 45.378 161.717 46.476 163.071 46.476Z" fill="black"/>
<path d="M178.635 46.476C179.989 46.476 181.087 45.378 181.087 44.0235C181.087 42.6691 179.989 41.571 178.635 41.571C177.28 41.571 176.182 42.6691 176.182 44.0235C176.182 45.378 177.28 46.476 178.635 46.476Z" fill="black"/>
<path d="M147.507 28.1294C148.862 28.1294 149.96 27.0313 149.96 25.6769C149.96 24.3224 148.862 23.2244 147.507 23.2244C146.153 23.2244 145.055 24.3224 145.055 25.6769C145.055 27.0313 146.153 28.1294 147.507 28.1294Z" fill="black"/>
<path d="M163.071 28.1294C164.426 28.1294 165.524 27.0313 165.524 25.6769C165.524 24.3224 164.426 23.2244 163.071 23.2244C161.717 23.2244 160.619 24.3224 160.619 25.6769C160.619 27.0313 161.717 28.1294 163.071 28.1294Z" fill="black"/>
<path d="M178.635 28.1294C179.989 28.1294 181.087 27.0313 181.087 25.6769C181.087 24.3224 179.989 23.2244 178.635 23.2244C177.28 23.2244 176.182 24.3224 176.182 25.6769C176.182 27.0313 177.28 28.1294 178.635 28.1294Z" fill="black"/>
<path d="M147.507 9.78292C148.862 9.78292 149.96 8.6849 149.96 7.33042C149.96 5.97595 148.862 4.87793 147.507 4.87793C146.153 4.87793 145.055 5.97595 145.055 7.33042C145.055 8.6849 146.153 9.78292 147.507 9.78292Z" fill="black"/>
<path d="M163.071 9.78292C164.426 9.78292 165.524 8.6849 165.524 7.33042C165.524 5.97595 164.426 4.87793 163.071 4.87793C161.717 4.87793 160.619 5.97595 160.619 7.33042C160.619 8.6849 161.717 9.78292 163.071 9.78292Z" fill="black"/>
<path d="M178.635 9.78292C179.989 9.78292 181.087 8.6849 181.087 7.33042C181.087 5.97595 179.989 4.87793 178.635 4.87793C177.28 4.87793 176.182 5.97595 176.182 7.33042C176.182 8.6849 177.28 9.78292 178.635 9.78292Z" fill="black"/>
<path d="M670.452 520.327C671.807 520.327 672.905 519.229 672.905 517.874C672.905 516.52 671.807 515.422 670.452 515.422C669.098 515.422 668 516.52 668 517.874C668 519.229 669.098 520.327 670.452 520.327Z" fill="black"/>
<path d="M686.016 520.327C687.371 520.327 688.469 519.229 688.469 517.874C688.469 516.52 687.371 515.422 686.016 515.422C684.662 515.422 683.564 516.52 683.564 517.874C683.564 519.229 684.662 520.327 686.016 520.327Z" fill="black"/>
<path d="M701.58 520.327C702.935 520.327 704.033 519.229 704.033 517.874C704.033 516.52 702.935 515.422 701.58 515.422C700.226 515.422 699.128 516.52 699.128 517.874C699.128 519.229 700.226 520.327 701.58 520.327Z" fill="black"/>
<path d="M670.452 501.98C671.807 501.98 672.905 500.882 672.905 499.528C672.905 498.173 671.807 497.075 670.452 497.075C669.098 497.075 668 498.173 668 499.528C668 500.882 669.098 501.98 670.452 501.98Z" fill="black"/>
<path d="M686.016 501.98C687.371 501.98 688.469 500.882 688.469 499.528C688.469 498.173 687.371 497.075 686.016 497.075C684.662 497.075 683.564 498.173 683.564 499.528C683.564 500.882 684.662 501.98 686.016 501.98Z" fill="black"/>
<path d="M701.58 501.98C702.935 501.98 704.033 500.882 704.033 499.528C704.033 498.173 702.935 497.075 701.58 497.075C700.226 497.075 699.128 498.173 699.128 499.528C699.128 500.882 700.226 501.98 701.58 501.98Z" fill="black"/>
<path d="M670.452 485.945C671.807 485.945 672.905 484.847 672.905 483.492C672.905 482.138 671.807 481.04 670.452 481.04C669.098 481.04 668 482.138 668 483.492C668 484.847 669.098 485.945 670.452 485.945Z" fill="black"/>
<path d="M686.016 485.945C687.371 485.945 688.469 484.847 688.469 483.492C688.469 482.138 687.371 481.04 686.016 481.04C684.662 481.04 683.564 482.138 683.564 483.492C683.564 484.847 684.662 485.945 686.016 485.945Z" fill="black"/>
<path d="M701.58 485.945C702.935 485.945 704.033 484.847 704.033 483.492C704.033 482.138 702.935 481.04 701.58 481.04C700.226 481.04 699.128 482.138 699.128 483.492C699.128 484.847 700.226 485.945 701.58 485.945Z" fill="black"/>
<path d="M670.452 573.539C671.807 573.539 672.905 572.441 672.905 571.087C672.905 569.732 671.807 568.634 670.452 568.634C669.098 568.634 668 569.732 668 571.087C668 572.441 669.098 573.539 670.452 573.539Z" fill="black"/>
<path d="M686.016 573.539C687.371 573.539 688.469 572.441 688.469 571.087C688.469 569.732 687.371 568.634 686.016 568.634C684.662 568.634 683.564 569.732 683.564 571.087C683.564 572.441 684.662 573.539 686.016 573.539Z" fill="black"/>
<path d="M701.58 573.539C702.935 573.539 704.033 572.441 704.033 571.087C704.033 569.732 702.935 568.634 701.58 568.634C700.226 568.634 699.128 569.732 699.128 571.087C699.128 572.441 700.226 573.539 701.58 573.539Z" fill="black"/>
<path d="M670.452 555.193C671.807 555.193 672.905 554.095 672.905 552.74C672.905 551.386 671.807 550.288 670.452 550.288C669.098 550.288 668 551.386 668 552.74C668 554.095 669.098 555.193 670.452 555.193Z" fill="black"/>
<path d="M686.016 555.193C687.371 555.193 688.469 554.095 688.469 552.74C688.469 551.386 687.371 550.288 686.016 550.288C684.662 550.288 683.564 551.386 683.564 552.74C683.564 554.095 684.662 555.193 686.016 555.193Z" fill="black"/>
<path d="M701.58 555.193C702.935 555.193 704.033 554.095 704.033 552.74C704.033 551.386 702.935 550.288 701.58 550.288C700.226 550.288 699.128 551.386 699.128 552.74C699.128 554.095 700.226 555.193 701.58 555.193Z" fill="black"/>
<path d="M670.452 539.157C671.807 539.157 672.905 538.059 672.905 536.705C672.905 535.35 671.807 534.252 670.452 534.252C669.098 534.252 668 535.35 668 536.705C668 538.059 669.098 539.157 670.452 539.157Z" fill="black"/>
<path d="M686.016 539.157C687.371 539.157 688.469 538.059 688.469 536.705C688.469 535.35 687.371 534.252 686.016 534.252C684.662 534.252 683.564 535.35 683.564 536.705C683.564 538.059 684.662 539.157 686.016 539.157Z" fill="black"/>
<path d="M701.58 539.157C702.935 539.157 704.033 538.059 704.033 536.705C704.033 535.35 702.935 534.252 701.58 534.252C700.226 534.252 699.128 535.35 699.128 536.705C699.128 538.059 700.226 539.157 701.58 539.157Z" fill="black"/>
<path d="M670.452 467.598C671.807 467.598 672.905 466.5 672.905 465.146C672.905 463.791 671.807 462.693 670.452 462.693C669.098 462.693 668 463.791 668 465.146C668 466.5 669.098 467.598 670.452 467.598Z" fill="black"/>
<path d="M686.016 467.598C687.371 467.598 688.469 466.5 688.469 465.146C688.469 463.791 687.371 462.693 686.016 462.693C684.662 462.693 683.564 463.791 683.564 465.146C683.564 466.5 684.662 467.598 686.016 467.598Z" fill="black"/>
<path d="M701.58 467.598C702.935 467.598 704.033 466.5 704.033 465.146C704.033 463.791 702.935 462.693 701.58 462.693C700.226 462.693 699.128 463.791 699.128 465.146C699.128 466.5 700.226 467.598 701.58 467.598Z" fill="black"/>
<path d="M670.452 449.252C671.807 449.252 672.905 448.154 672.905 446.799C672.905 445.445 671.807 444.347 670.452 444.347C669.098 444.347 668 445.445 668 446.799C668 448.154 669.098 449.252 670.452 449.252Z" fill="black"/>
<path d="M686.016 449.252C687.371 449.252 688.469 448.154 688.469 446.799C688.469 445.445 687.371 444.347 686.016 444.347C684.662 444.347 683.564 445.445 683.564 446.799C683.564 448.154 684.662 449.252 686.016 449.252Z" fill="black"/>
<path d="M701.58 449.252C702.935 449.252 704.033 448.154 704.033 446.799C704.033 445.445 702.935 444.347 701.58 444.347C700.226 444.347 699.128 445.445 699.128 446.799C699.128 448.154 700.226 449.252 701.58 449.252Z" fill="black"/>
<path d="M670.452 430.905C671.807 430.905 672.905 429.807 672.905 428.453C672.905 427.098 671.807 426 670.452 426C669.098 426 668 427.098 668 428.453C668 429.807 669.098 430.905 670.452 430.905Z" fill="black"/>
<path d="M686.016 430.905C687.371 430.905 688.469 429.807 688.469 428.452C688.469 427.098 687.371 426 686.016 426C684.662 426 683.564 427.098 683.564 428.452C683.564 429.807 684.662 430.905 686.016 430.905Z" fill="black"/>
<path d="M701.58 430.905C702.935 430.905 704.033 429.807 704.033 428.452C704.033 427.098 702.935 426 701.58 426C700.226 426 699.128 427.098 699.128 428.452C699.128 429.807 700.226 430.905 701.58 430.905Z" fill="black"/>
</svg>
